# xmcd
#
# Track frame offsets:
# 150
# 17192
# 35955
# 49440
# 62485
# 83905
# 99200
# 105500
# 113347
# 128255
# 143385
# 161020
# 172247
# 187455
# 196955
# 207495
# 220270
# 233280
# 252180
#
# Disc length: 3522 seconds
#
# Revision: 0
# Processed by: cddbd v1.4PL0 Copyright (c) Steve Scherf et al.
# Submitted via: Audion 3.0.2 (http://www.panic.com/audion/)
#
DISCID=050dc013
DTITLE=Louis Armstrong - Jazz Histroy Loius Armstrong and His Orchestra 1947 - 67
DYEAR=1900
DGENRE=
TTITLE0=Back Home From Indiana
TTITLE1=King Porter Stomp
TTITLE2=A Kiss To Build A Dream On
TTITLE3=I Can't Give You Anything But Love
TTITLE4=Back O'Twon Blues
TTITLE5=Please, Don't Talk About Me When I'm Gone
TTITLE6=Baby, Won't You Please Come Home
TTITLE7=St. James Infirmary
TTITLE8=Blueberry Hill
TTITLE9=Mack The Knife
TTITLE10=Cabaret
TTITLE11=Hello Dolly
TTITLE12=High Society
TTITLE13=Royal Garden Blues
TTITLE14=Dippermouth Blues
TTITLE15=Stompin' At The Savoy
TTITLE16=That's My Desire
TTITLE17=Ole Miss
TTITLE18=When It's Sleppy Time Down South
EXTD=
EXTT0=
EXTT1=
EXTT2=
EXTT3=
EXTT4=
EXTT5=
EXTT6=
EXTT7=
EXTT8=
EXTT9=
EXTT10=
EXTT11=
EXTT12=
EXTT13=
EXTT14=
EXTT15=
EXTT16=
EXTT17=
EXTT18=
PLAYORDER=
